# xmcd
#
# Track frame offsets:
#	150
#	19679
#	37858
#	54730
#	71708
#	87512
#	104246
#	120690
#	138147
#	153419
#	169977
#	189593
#	207106
#	221691
#	237889
#	254497
#	272212
#	286621
#	304486
#	319170
#	335030
#
# Disc length: 4663 seconds
#
# Revision: 0
# Processed by: cddbd v1.5.2PL0 Copyright (c) Steve Scherf et al.
# Submitted via: EasyCDDAExtractor 11.5.0.1
#
DISCID=44123515
DTITLE=Various Artist - NCT 090
DYEAR=2006
DGENRE=Country
TTITLE0=Faith Hill - Stealing Kisses
TTITLE1=Keith Anderson - Podunk
TTITLE2=Kellie Pickler - Red High Heels
TTITLE3=Craig Morgan - Little Bit Of Life
TTITLE4=The Wreckers - My, Oh My
TTITLE5=Trace Adkins - Ladies Love Country Boys
TTITLE6=Kenny Rogers - The Last 10 Years (Superman)
TTITLE7=Rodney Atkins - Watching You
TTITLE8=Tyler Dean - Built For Blue Jeans
TTITLE9=Clay Walker - Fore She Was Mama
TTITLE10=Brian McComas - All Comes Floodin' Down
TTITLE11=Ashley Monroe with Ronnie Dunn - I Don't Want To
TTITLE12=Jimmy Buffett - Bama Breeze
TTITLE13=Billy Currington - Good Directions
TTITLE14=Gary Nichols - I Can't Love You Anymore
TTITLE15=Jake Owen - Startin' With Me
TTITLE16=Deryl Dodd - That's The Stuff
TTITLE17=Rick Trevino - Better In Texas
TTITLE18=Los Lonely Boys - Diamonds
TTITLE19=Lantana - Country As A City Girl Can Be
TTITLE20=Ty Herndon - Right About Now
EXTD=
EXTT0=
EXTT1=
EXTT2=
EXTT3=
EXTT4=
EXTT5=
EXTT6=
EXTT7=
EXTT8=
EXTT9=
EXTT10=
EXTT11=
EXTT12=
EXTT13=
EXTT14=
EXTT15=
EXTT16=
EXTT17=
EXTT18=
EXTT19=
EXTT20=
PLAYORDER=
